  0
SECTION
  2
HEADER
  9
$ANGBASE
  50
0.0
  9
$ANGDIR
  70
1
  9
$MEASUREMENT
  70
0
  0
ENDSEC
  0
SECTION
  2
TABLES
  0
TABLE
  2
LTYPE
  70
4
  0
LTYPE
  5
40F
  2
CONTINUOUS
  70
0
  3
Solid line
  72
65
  73
0
  40
0.0
  0
LTYPE
  5
410
  2
DASHDOT
 70
0
  3
Dash Dot ____ _ ____ _
 72
65
 73
4
 40
2.0
 49
1.25
 49
-0.25
 49
0.25
 49
-0.25
  0
LTYPE
  5
411
  2
DASHED
 70
0
  3
Dashed __ __ __ __ __
 72
65
 73
2
 40
0.75
 49
0.5
 49
-0.25
  0
LTYPE
  5
43B
  2
DOTTED
 70
0
  3
Dotted .  .  .  .
 72
65
 73
2
 40
0.2
 49
0.0
 49
-0.2
  0
ENDTAB
  0
TABLE
  2
STYLE
  70
4
  0
STYLE
  2
KICAD
  70
0
  40
0
  41
1
  42
1
  50
0
  71
0
  3
isocp.shx
  0
STYLE
  2
KICADB
  70
0
  40
0
  41
1
  42
1
  50
0
  71
0
  3
isocp.shx
  0
STYLE
  2
KICADI
  70
0
  40
0
  41
1
  42
1
  50
15
  71
0
  3
isocp.shx
  0
STYLE
  2
KICADBI
  70
0
  40
0
  41
1
  42
1
  50
15
  71
0
  3
isocp.shx
  0
ENDTAB
  0
TABLE
  2
LAYER
  70
1
  0
LAYER
  2
BLACK
  70
0
  62
7
  6
CONTINUOUS
  0
ENDTAB
  0
ENDSEC
  0
SECTION
  2
ENTITIES
0
LINE
8
BLACK
6
CONTINUOUS
10
3.74006
20
-4.72539
11
3.74006
21
-4.72539
0
LINE
8
BLACK
6
CONTINUOUS
10
3.74006
20
-4.72539
11
3.71712
21
-4.72314
0
LINE
8
BLACK
6
CONTINUOUS
10
3.71712
20
-4.72314
11
3.71711
21
-4.72314
0
LINE
8
BLACK
6
CONTINUOUS
10
3.71711
20
-4.72314
11
3.71702
21
-4.72312
0
LINE
8
BLACK
6
CONTINUOUS
10
3.71702
20
-4.72312
11
3.71693
21
-4.7231
0
LINE
8
BLACK
6
CONTINUOUS
10
3.71693
20
-4.7231
11
3.69486
21
-4.71644
0
LINE
8
BLACK
6
CONTINUOUS
10
3.69486
20
-4.71644
11
3.69485
21
-4.71644
0
LINE
8
BLACK
6
CONTINUOUS
10
3.69485
20
-4.71644
11
3.69477
21
-4.7164
0
LINE
8
BLACK
6
CONTINUOUS
10
3.69477
20
-4.7164
11
3.69469
21
-4.71637
0
LINE
8
BLACK
6
CONTINUOUS
10
3.69469
20
-4.71637
11
3.67433
21
-4.70554
0
LINE
8
BLACK
6
CONTINUOUS
10
3.67433
20
-4.70554
11
3.67432
21
-4.70554
0
LINE
8
BLACK
6
CONTINUOUS
10
3.67432
20
-4.70554
11
3.67425
21
-4.70549
0
LINE
8
BLACK
6
CONTINUOUS
10
3.67425
20
-4.70549
11
3.67417
21
-4.70544
0
LINE
8
BLACK
6
CONTINUOUS
10
3.67417
20
-4.70544
11
3.65631
21
-4.69087
0
LINE
8
BLACK
6
CONTINUOUS
10
3.65631
20
-4.69087
11
3.6563
21
-4.69086
0
LINE
8
BLACK
6
CONTINUOUS
10
3.6563
20
-4.69086
11
3.65624
21
-4.6908
0
LINE
8
BLACK
6
CONTINUOUS
10
3.65624
20
-4.6908
11
3.65617
21
-4.69073
0
LINE
8
BLACK
6
CONTINUOUS
10
3.65617
20
-4.69073
11
3.64148
21
-4.67297
0
LINE
8
BLACK
6
CONTINUOUS
10
3.64148
20
-4.67297
11
3.64147
21
-4.67296
0
LINE
8
BLACK
6
CONTINUOUS
10
3.64147
20
-4.67296
11
3.64142
21
-4.67289
0
LINE
8
BLACK
6
CONTINUOUS
10
3.64142
20
-4.67289
11
3.64137
21
-4.67281
0
LINE
8
BLACK
6
CONTINUOUS
10
3.64137
20
-4.67281
11
3.63041
21
-4.65254
0
LINE
8
BLACK
6
CONTINUOUS
10
3.63041
20
-4.65254
11
3.6304
21
-4.65252
0
LINE
8
BLACK
6
CONTINUOUS
10
3.6304
20
-4.65252
11
3.63037
21
-4.65244
0
LINE
8
BLACK
6
CONTINUOUS
10
3.63037
20
-4.65244
11
3.63034
21
-4.65236
0
LINE
8
BLACK
6
CONTINUOUS
10
3.63034
20
-4.65236
11
3.62352
21
-4.63034
0
LINE
8
BLACK
6
CONTINUOUS
10
3.62352
20
-4.63034
11
3.62352
21
-4.63033
0
LINE
8
BLACK
6
CONTINUOUS
10
3.62352
20
-4.63033
11
3.6235
21
-4.63024
0
LINE
8
BLACK
6
CONTINUOUS
10
3.6235
20
-4.63024
11
3.62348
21
-4.63015
0
LINE
8
BLACK
6
CONTINUOUS
10
3.62348
20
-4.63015
11
3.62107
21
-4.60723
0
LINE
8
BLACK
6
CONTINUOUS
10
3.62107
20
-4.60723
11
3.62107
21
-4.60721
0
LINE
8
BLACK
6
CONTINUOUS
10
3.62107
20
-4.60721
11
3.62107
21
-4.60717
0
LINE
8
BLACK
6
CONTINUOUS
10
3.62107
20
-4.60717
11
3.62107
21
-4.60713
0
LINE
8
BLACK
6
CONTINUOUS
10
3.62107
20
-4.60713
11
3.62106
21
-4.60635
0
LINE
8
BLACK
6
CONTINUOUS
10
3.62106
20
-4.60635
11
3.62106
21
-4.60635
0
LINE
8
BLACK
6
CONTINUOUS
10
3.62106
20
-4.60635
11
3.62106
21
-4.60631
0
LINE
8
BLACK
6
CONTINUOUS
10
3.62106
20
-4.60631
11
3.62106
21
-4.6063
0
LINE
8
BLACK
6
CONTINUOUS
10
3.62106
20
-4.6063
11
3.62106
21
-4.60629
0
LINE
8
BLACK
6
CONTINUOUS
10
3.62106
20
-4.60629
11
3.62106
21
-3.70074
0
LINE
8
BLACK
6
CONTINUOUS
10
3.62106
20
-3.70074
11
3.62107
21
-3.70069
0
LINE
8
BLACK
6
CONTINUOUS
10
3.62107
20
-3.70069
11
3.62107
21
-3.70069
0
LINE
8
BLACK
6
CONTINUOUS
10
3.62107
20
-3.70069
11
3.62332
21
-3.67775
0
LINE
8
BLACK
6
CONTINUOUS
10
3.62332
20
-3.67775
11
3.62332
21
-3.67774
0
LINE
8
BLACK
6
CONTINUOUS
10
3.62332
20
-3.67774
11
3.62334
21
-3.67765
0
LINE
8
BLACK
6
CONTINUOUS
10
3.62334
20
-3.67765
11
3.62335
21
-3.67756
0
LINE
8
BLACK
6
CONTINUOUS
10
3.62335
20
-3.67756
11
3.63002
21
-3.65549
0
LINE
8
BLACK
6
CONTINUOUS
10
3.63002
20
-3.65549
11
3.63002
21
-3.65548
0
LINE
8
BLACK
6
CONTINUOUS
10
3.63002
20
-3.65548
11
3.63006
21
-3.6554
0
LINE
8
BLACK
6
CONTINUOUS
10
3.63006
20
-3.6554
11
3.63009
21
-3.65532
0
LINE
8
BLACK
6
CONTINUOUS
10
3.63009
20
-3.65532
11
3.64091
21
-3.63496
0
LINE
8
BLACK
6
CONTINUOUS
10
3.64091
20
-3.63496
11
3.64092
21
-3.63495
0
LINE
8
BLACK
6
CONTINUOUS
10
3.64092
20
-3.63495
11
3.64097
21
-3.63488
0
LINE
8
BLACK
6
CONTINUOUS
10
3.64097
20
-3.63488
11
3.64102
21
-3.6348
0
LINE
8
BLACK
6
CONTINUOUS
10
3.64102
20
-3.6348
11
3.65559
21
-3.61694
0
LINE
8
BLACK
6
CONTINUOUS
10
3.65559
20
-3.61694
11
3.65559
21
-3.61694
0
LINE
8
BLACK
6
CONTINUOUS
10
3.65559
20
-3.61694
11
3.65559
21
-3.61694
0
LINE
8
BLACK
6
CONTINUOUS
10
3.65559
20
-3.61694
11
3.6556
21
-3.61693
0
LINE
8
BLACK
6
CONTINUOUS
10
3.6556
20
-3.61693
11
3.65566
21
-3.61687
0
LINE
8
BLACK
6
CONTINUOUS
10
3.65566
20
-3.61687
11
3.65572
21
-3.6168
0
LINE
8
BLACK
6
CONTINUOUS
10
3.65572
20
-3.6168
11
3.67348
21
-3.60211
0
LINE
8
BLACK
6
CONTINUOUS
10
3.67348
20
-3.60211
11
3.67349
21
-3.6021
0
LINE
8
BLACK
6
CONTINUOUS
10
3.67349
20
-3.6021
11
3.67357
21
-3.60205
0
LINE
8
BLACK
6
CONTINUOUS
10
3.67357
20
-3.60205
11
3.67364
21
-3.602
0
LINE
8
BLACK
6
CONTINUOUS
10
3.67364
20
-3.602
11
3.69392
21
-3.59104
0
LINE
8
BLACK
6
CONTINUOUS
10
3.69392
20
-3.59104
11
3.69393
21
-3.59103
0
LINE
8
BLACK
6
CONTINUOUS
10
3.69393
20
-3.59103
11
3.69402
21
-3.591
0
LINE
8
BLACK
6
CONTINUOUS
10
3.69402
20
-3.591
11
3.6941
21
-3.59097
0
LINE
8
BLACK
6
CONTINUOUS
10
3.6941
20
-3.59097
11
3.71612
21
-3.58415
0
LINE
8
BLACK
6
CONTINUOUS
10
3.71612
20
-3.58415
11
3.71612
21
-3.58415
0
LINE
8
BLACK
6
CONTINUOUS
10
3.71612
20
-3.58415
11
3.71613
21
-3.58415
0
LINE
8
BLACK
6
CONTINUOUS
10
3.71613
20
-3.58415
11
3.71622
21
-3.58413
0
LINE
8
BLACK
6
CONTINUOUS
10
3.71622
20
-3.58413
11
3.71631
21
-3.58411
0
LINE
8
BLACK
6
CONTINUOUS
10
3.71631
20
-3.58411
11
3.73923
21
-3.5817
0
LINE
8
BLACK
6
CONTINUOUS
10
3.73923
20
-3.5817
11
3.73924
21
-3.5817
0
LINE
8
BLACK
6
CONTINUOUS
10
3.73924
20
-3.5817
11
3.73929
21
-3.5817
0
LINE
8
BLACK
6
CONTINUOUS
10
3.73929
20
-3.5817
11
3.73933
21
-3.5817
0
LINE
8
BLACK
6
CONTINUOUS
10
3.73933
20
-3.5817
11
3.74011
21
-3.58169
0
LINE
8
BLACK
6
CONTINUOUS
10
3.74011
20
-3.58169
11
3.74011
21
-3.58169
0
LINE
8
BLACK
6
CONTINUOUS
10
3.74011
20
-3.58169
11
5.00005
21
-3.58169
0
LINE
8
BLACK
6
CONTINUOUS
10
5.00005
20
-3.58169
11
5.0001
21
-3.5817
0
LINE
8
BLACK
6
CONTINUOUS
10
5.0001
20
-3.5817
11
5.0001
21
-3.5817
0
LINE
8
BLACK
6
CONTINUOUS
10
5.0001
20
-3.5817
11
5.02304
21
-3.58395
0
LINE
8
BLACK
6
CONTINUOUS
10
5.02304
20
-3.58395
11
5.02305
21
-3.58395
0
LINE
8
BLACK
6
CONTINUOUS
10
5.02305
20
-3.58395
11
5.02314
21
-3.58397
0
LINE
8
BLACK
6
CONTINUOUS
10
5.02314
20
-3.58397
11
5.02323
21
-3.58398
0
LINE
8
BLACK
6
CONTINUOUS
10
5.02323
20
-3.58398
11
5.04529
21
-3.59065
0
LINE
8
BLACK
6
CONTINUOUS
10
5.04529
20
-3.59065
11
5.04531
21
-3.59065
0
LINE
8
BLACK
6
CONTINUOUS
10
5.04531
20
-3.59065
11
5.04539
21
-3.59069
0
LINE
8
BLACK
6
CONTINUOUS
10
5.04539
20
-3.59069
11
5.04547
21
-3.59072
0
LINE
8
BLACK
6
CONTINUOUS
10
5.04547
20
-3.59072
11
5.06582
21
-3.60154
0
LINE
8
BLACK
6
CONTINUOUS
10
5.06582
20
-3.60154
11
5.06584
21
-3.60155
0
LINE
8
BLACK
6
CONTINUOUS
10
5.06584
20
-3.60155
11
5.06591
21
-3.6016
0
LINE
8
BLACK
6
CONTINUOUS
10
5.06591
20
-3.6016
11
5.06598
21
-3.60165
0
LINE
8
BLACK
6
CONTINUOUS
10
5.06598
20
-3.60165
11
5.08385
21
-3.61622
0
LINE
8
BLACK
6
CONTINUOUS
10
5.08385
20
-3.61622
11
5.08385
21
-3.61622
0
LINE
8
BLACK
6
CONTINUOUS
10
5.08385
20
-3.61622
11
5.08385
21
-3.61622
0
LINE
8
BLACK
6
CONTINUOUS
10
5.08385
20
-3.61622
11
5.08386
21
-3.61623
0
LINE
8
BLACK
6
CONTINUOUS
10
5.08386
20
-3.61623
11
5.08392
21
-3.61629
0
LINE
8
BLACK
6
CONTINUOUS
10
5.08392
20
-3.61629
11
5.08398
21
-3.61635
0
LINE
8
BLACK
6
CONTINUOUS
10
5.08398
20
-3.61635
11
5.09868
21
-3.63411
0
LINE
8
BLACK
6
CONTINUOUS
10
5.09868
20
-3.63411
11
5.09868
21
-3.63412
0
LINE
8
BLACK
6
CONTINUOUS
10
5.09868
20
-3.63412
11
5.09873
21
-3.6342
0
LINE
8
BLACK
6
CONTINUOUS
10
5.09873
20
-3.6342
11
5.09878
21
-3.63427
0
LINE
8
BLACK
6
CONTINUOUS
10
5.09878
20
-3.63427
11
5.10975
21
-3.65455
0
LINE
8
BLACK
6
CONTINUOUS
10
5.10975
20
-3.65455
11
5.10975
21
-3.65456
0
LINE
8
BLACK
6
CONTINUOUS
10
5.10975
20
-3.65456
11
5.10979
21
-3.65464
0
LINE
8
BLACK
6
CONTINUOUS
10
5.10979
20
-3.65464
11
5.10982
21
-3.65473
0
LINE
8
BLACK
6
CONTINUOUS
10
5.10982
20
-3.65473
11
5.11664
21
-3.67675
0
LINE
8
BLACK
6
CONTINUOUS
10
5.11664
20
-3.67675
11
5.11664
21
-3.67676
0
LINE
8
BLACK
6
CONTINUOUS
10
5.11664
20
-3.67676
11
5.11666
21
-3.67685
0
LINE
8
BLACK
6
CONTINUOUS
10
5.11666
20
-3.67685
11
5.11668
21
-3.67694
0
LINE
8
BLACK
6
CONTINUOUS
10
5.11668
20
-3.67694
11
5.11909
21
-3.69986
0
LINE
8
BLACK
6
CONTINUOUS
10
5.11909
20
-3.69986
11
5.11909
21
-3.69987
0
LINE
8
BLACK
6
CONTINUOUS
10
5.11909
20
-3.69987
11
5.11909
21
-3.69992
0
LINE
8
BLACK
6
CONTINUOUS
10
5.11909
20
-3.69992
11
5.11909
21
-3.69996
0
LINE
8
BLACK
6
CONTINUOUS
10
5.11909
20
-3.69996
11
5.11909
21
-3.70074
0
LINE
8
BLACK
6
CONTINUOUS
10
5.11909
20
-3.70074
11
5.11909
21
-3.70074
0
LINE
8
BLACK
6
CONTINUOUS
10
5.11909
20
-3.70074
11
5.11909
21
-4.60635
0
LINE
8
BLACK
6
CONTINUOUS
10
5.11909
20
-4.60635
11
5.11909
21
-4.60639
0
LINE
8
BLACK
6
CONTINUOUS
10
5.11909
20
-4.60639
11
5.11909
21
-4.6064
0
LINE
8
BLACK
6
CONTINUOUS
10
5.11909
20
-4.6064
11
5.11684
21
-4.62934
0
LINE
8
BLACK
6
CONTINUOUS
10
5.11684
20
-4.62934
11
5.11684
21
-4.62935
0
LINE
8
BLACK
6
CONTINUOUS
10
5.11684
20
-4.62935
11
5.11682
21
-4.62944
0
LINE
8
BLACK
6
CONTINUOUS
10
5.11682
20
-4.62944
11
5.1168
21
-4.62952
0
LINE
8
BLACK
6
CONTINUOUS
10
5.1168
20
-4.62952
11
5.11014
21
-4.65159
0
LINE
8
BLACK
6
CONTINUOUS
10
5.11014
20
-4.65159
11
5.11014
21
-4.65161
0
LINE
8
BLACK
6
CONTINUOUS
10
5.11014
20
-4.65161
11
5.1101
21
-4.65169
0
LINE
8
BLACK
6
CONTINUOUS
10
5.1101
20
-4.65169
11
5.11007
21
-4.65177
0
LINE
8
BLACK
6
CONTINUOUS
10
5.11007
20
-4.65177
11
5.09925
21
-4.67212
0
LINE
8
BLACK
6
CONTINUOUS
10
5.09925
20
-4.67212
11
5.09924
21
-4.67213
0
LINE
8
BLACK
6
CONTINUOUS
10
5.09924
20
-4.67213
11
5.09919
21
-4.67221
0
LINE
8
BLACK
6
CONTINUOUS
10
5.09919
20
-4.67221
11
5.09914
21
-4.67228
0
LINE
8
BLACK
6
CONTINUOUS
10
5.09914
20
-4.67228
11
5.08457
21
-4.69015
0
LINE
8
BLACK
6
CONTINUOUS
10
5.08457
20
-4.69015
11
5.08456
21
-4.69016
0
LINE
8
BLACK
6
CONTINUOUS
10
5.08456
20
-4.69016
11
5.0845
21
-4.69022
0
LINE
8
BLACK
6
CONTINUOUS
10
5.0845
20
-4.69022
11
5.08443
21
-4.69028
0
LINE
8
BLACK
6
CONTINUOUS
10
5.08443
20
-4.69028
11
5.06667
21
-4.70498
0
LINE
8
BLACK
6
CONTINUOUS
10
5.06667
20
-4.70498
11
5.06666
21
-4.70498
0
LINE
8
BLACK
6
CONTINUOUS
10
5.06666
20
-4.70498
11
5.06659
21
-4.70503
0
LINE
8
BLACK
6
CONTINUOUS
10
5.06659
20
-4.70503
11
5.06651
21
-4.70508
0
LINE
8
BLACK
6
CONTINUOUS
10
5.06651
20
-4.70508
11
5.04624
21
-4.71605
0
LINE
8
BLACK
6
CONTINUOUS
10
5.04624
20
-4.71605
11
5.04623
21
-4.71605
0
LINE
8
BLACK
6
CONTINUOUS
10
5.04623
20
-4.71605
11
5.04614
21
-4.71609
0
LINE
8
BLACK
6
CONTINUOUS
10
5.04614
20
-4.71609
11
5.04606
21
-4.71612
0
LINE
8
BLACK
6
CONTINUOUS
10
5.04606
20
-4.71612
11
5.02404
21
-4.72294
0
LINE
8
BLACK
6
CONTINUOUS
10
5.02404
20
-4.72294
11
5.02403
21
-4.72294
0
LINE
8
BLACK
6
CONTINUOUS
10
5.02403
20
-4.72294
11
5.02394
21
-4.72296
0
LINE
8
BLACK
6
CONTINUOUS
10
5.02394
20
-4.72296
11
5.02385
21
-4.72298
0
LINE
8
BLACK
6
CONTINUOUS
10
5.02385
20
-4.72298
11
5.00093
21
-4.72539
0
LINE
8
BLACK
6
CONTINUOUS
10
5.00093
20
-4.72539
11
5.00091
21
-4.72539
0
LINE
8
BLACK
6
CONTINUOUS
10
5.00091
20
-4.72539
11
5.00087
21
-4.72539
0
LINE
8
BLACK
6
CONTINUOUS
10
5.00087
20
-4.72539
11
5.00083
21
-4.72539
0
LINE
8
BLACK
6
CONTINUOUS
10
5.00083
20
-4.72539
11
5.00005
21
-4.72539
0
LINE
8
BLACK
6
CONTINUOUS
10
5.00005
20
-4.72539
11
5.00005
21
-4.72539
0
LINE
8
BLACK
6
CONTINUOUS
10
5.00005
20
-4.72539
11
3.74011
21
-4.72539
0
LINE
8
BLACK
6
CONTINUOUS
10
3.74011
20
-4.72539
11
3.74006
21
-4.72539
0
LINE
8
BLACK
6
CONTINUOUS
10
3.74016
20
-3.58366
11
3.73939
21
-3.58366
0
LINE
8
BLACK
6
CONTINUOUS
10
3.73939
20
-3.58366
11
3.71661
21
-3.58606
0
LINE
8
BLACK
6
CONTINUOUS
10
3.71661
20
-3.58606
11
3.69477
21
-3.59282
0
LINE
8
BLACK
6
CONTINUOUS
10
3.69477
20
-3.59282
11
3.67466
21
-3.60369
0
LINE
8
BLACK
6
CONTINUOUS
10
3.67466
20
-3.60369
11
3.65705
21
-3.61826
0
LINE
8
BLACK
6
CONTINUOUS
10
3.65705
20
-3.61826
11
3.6426
21
-3.63597
0
LINE
8
BLACK
6
CONTINUOUS
10
3.6426
20
-3.63597
11
3.63187
21
-3.65616
0
LINE
8
BLACK
6
CONTINUOUS
10
3.63187
20
-3.65616
11
3.62527
21
-3.67804
0
LINE
8
BLACK
6
CONTINUOUS
10
3.62527
20
-3.67804
11
3.62303
21
-3.70084
0
LINE
8
BLACK
6
CONTINUOUS
10
3.62303
20
-3.70084
11
3.62303
21
-4.6063
0
LINE
8
BLACK
6
CONTINUOUS
10
3.62303
20
-4.6063
11
3.62303
21
-4.60707
0
LINE
8
BLACK
6
CONTINUOUS
10
3.62303
20
-4.60707
11
3.62543
21
-4.62985
0
LINE
8
BLACK
6
CONTINUOUS
10
3.62543
20
-4.62985
11
3.63219
21
-4.65169
0
LINE
8
BLACK
6
CONTINUOUS
10
3.63219
20
-4.65169
11
3.64306
21
-4.67179
0
LINE
8
BLACK
6
CONTINUOUS
10
3.64306
20
-4.67179
11
3.65763
21
-4.6894
0
LINE
8
BLACK
6
CONTINUOUS
10
3.65763
20
-4.6894
11
3.67534
21
-4.70385
0
LINE
8
BLACK
6
CONTINUOUS
10
3.67534
20
-4.70385
11
3.69553
21
-4.71458
0
LINE
8
BLACK
6
CONTINUOUS
10
3.69553
20
-4.71458
11
3.71741
21
-4.72119
0
LINE
8
BLACK
6
CONTINUOUS
10
3.71741
20
-4.72119
11
3.74021
21
-4.72343
0
LINE
8
BLACK
6
CONTINUOUS
10
3.74021
20
-4.72343
11
5
21
-4.72343
0
LINE
8
BLACK
6
CONTINUOUS
10
5
20
-4.72343
11
5.00077
21
-4.72342
0
LINE
8
BLACK
6
CONTINUOUS
10
5.00077
20
-4.72342
11
5.02355
21
-4.72103
0
LINE
8
BLACK
6
CONTINUOUS
10
5.02355
20
-4.72103
11
5.04539
21
-4.71427
0
LINE
8
BLACK
6
CONTINUOUS
10
5.04539
20
-4.71427
11
5.06549
21
-4.7034
0
LINE
8
BLACK
6
CONTINUOUS
10
5.06549
20
-4.7034
11
5.08311
21
-4.68883
0
LINE
8
BLACK
6
CONTINUOUS
10
5.08311
20
-4.68883
11
5.09755
21
-4.67111
0
LINE
8
BLACK
6
CONTINUOUS
10
5.09755
20
-4.67111
11
5.10828
21
-4.65093
0
LINE
8
BLACK
6
CONTINUOUS
10
5.10828
20
-4.65093
11
5.11489
21
-4.62905
0
LINE
8
BLACK
6
CONTINUOUS
10
5.11489
20
-4.62905
11
5.11713
21
-4.60625
0
LINE
8
BLACK
6
CONTINUOUS
10
5.11713
20
-4.60625
11
5.11713
21
-3.70079
0
LINE
8
BLACK
6
CONTINUOUS
10
5.11713
20
-3.70079
11
5.11713
21
-3.70079
0
LINE
8
BLACK
6
CONTINUOUS
10
5.11713
20
-3.70079
11
5.11712
21
-3.70002
0
LINE
8
BLACK
6
CONTINUOUS
10
5.11712
20
-3.70002
11
5.11473
21
-3.67724
0
LINE
8
BLACK
6
CONTINUOUS
10
5.11473
20
-3.67724
11
5.10797
21
-3.6554
0
LINE
8
BLACK
6
CONTINUOUS
10
5.10797
20
-3.6554
11
5.0971
21
-3.63529
0
LINE
8
BLACK
6
CONTINUOUS
10
5.0971
20
-3.63529
11
5.08253
21
-3.61768
0
LINE
8
BLACK
6
CONTINUOUS
10
5.08253
20
-3.61768
11
5.06481
21
-3.60323
0
LINE
8
BLACK
6
CONTINUOUS
10
5.06481
20
-3.60323
11
5.04463
21
-3.5925
0
LINE
8
BLACK
6
CONTINUOUS
10
5.04463
20
-3.5925
11
5.02275
21
-3.5859
0
LINE
8
BLACK
6
CONTINUOUS
10
5.02275
20
-3.5859
11
4.99995
21
-3.58366
0
LINE
8
BLACK
6
CONTINUOUS
10
4.99995
20
-3.58366
11
3.74016
21
-3.58366
  0
ENDSEC
  0
EOF
