%TF.GenerationSoftware,KiCad,Pcbnew,(5.1.10)-1*%
%TF.CreationDate,2025-08-18T11:18:52+09:00*%
%TF.ProjectId,TA_01,54415f30-312e-46b6-9963-61645f706362,rev?*%
%TF.SameCoordinates,Original*%
%TF.FileFunction,Soldermask,Top*%
%TF.FilePolarity,Negative*%
%FSLAX46Y46*%
G04 Gerber Fmt 4.6, Leading zero omitted, Abs format (unit mm)*
G04 Created by KiCad (PCBNEW (5.1.10)-1) date 2025-08-18 11:18:52*
%MOMM*%
%LPD*%
G01*
G04 APERTURE LIST*
%ADD10R,1.160000X0.600000*%
%ADD11C,0.600000*%
%ADD12R,1.160000X0.300000*%
%ADD13O,1.700000X0.900000*%
%ADD14O,2.000000X0.900000*%
%ADD15O,1.950000X1.700000*%
%ADD16R,1.000000X1.500000*%
%ADD17O,1.600000X1.600000*%
%ADD18R,1.600000X1.600000*%
G04 APERTURE END LIST*
%TO.C,U1*%
G36*
G01*
X110720000Y-97305000D02*
X110720000Y-97005000D01*
G75*
G02*
X110870000Y-96855000I150000J0D01*
G01*
X112520000Y-96855000D01*
G75*
G02*
X112670000Y-97005000I0J-150000D01*
G01*
X112670000Y-97305000D01*
G75*
G02*
X112520000Y-97455000I-150000J0D01*
G01*
X110870000Y-97455000D01*
G75*
G02*
X110720000Y-97305000I0J150000D01*
G01*
G37*
G36*
G01*
X110720000Y-98575000D02*
X110720000Y-98275000D01*
G75*
G02*
X110870000Y-98125000I150000J0D01*
G01*
X112520000Y-98125000D01*
G75*
G02*
X112670000Y-98275000I0J-150000D01*
G01*
X112670000Y-98575000D01*
G75*
G02*
X112520000Y-98725000I-150000J0D01*
G01*
X110870000Y-98725000D01*
G75*
G02*
X110720000Y-98575000I0J150000D01*
G01*
G37*
G36*
G01*
X110720000Y-99845000D02*
X110720000Y-99545000D01*
G75*
G02*
X110870000Y-99395000I150000J0D01*
G01*
X112520000Y-99395000D01*
G75*
G02*
X112670000Y-99545000I0J-150000D01*
G01*
X112670000Y-99845000D01*
G75*
G02*
X112520000Y-99995000I-150000J0D01*
G01*
X110870000Y-99995000D01*
G75*
G02*
X110720000Y-99845000I0J150000D01*
G01*
G37*
G36*
G01*
X110720000Y-101115000D02*
X110720000Y-100815000D01*
G75*
G02*
X110870000Y-100665000I150000J0D01*
G01*
X112520000Y-100665000D01*
G75*
G02*
X112670000Y-100815000I0J-150000D01*
G01*
X112670000Y-101115000D01*
G75*
G02*
X112520000Y-101265000I-150000J0D01*
G01*
X110870000Y-101265000D01*
G75*
G02*
X110720000Y-101115000I0J150000D01*
G01*
G37*
G36*
G01*
X105770000Y-101115000D02*
X105770000Y-100815000D01*
G75*
G02*
X105920000Y-100665000I150000J0D01*
G01*
X107570000Y-100665000D01*
G75*
G02*
X107720000Y-100815000I0J-150000D01*
G01*
X107720000Y-101115000D01*
G75*
G02*
X107570000Y-101265000I-150000J0D01*
G01*
X105920000Y-101265000D01*
G75*
G02*
X105770000Y-101115000I0J150000D01*
G01*
G37*
G36*
G01*
X105770000Y-99845000D02*
X105770000Y-99545000D01*
G75*
G02*
X105920000Y-99395000I150000J0D01*
G01*
X107570000Y-99395000D01*
G75*
G02*
X107720000Y-99545000I0J-150000D01*
G01*
X107720000Y-99845000D01*
G75*
G02*
X107570000Y-99995000I-150000J0D01*
G01*
X105920000Y-99995000D01*
G75*
G02*
X105770000Y-99845000I0J150000D01*
G01*
G37*
G36*
G01*
X105770000Y-98575000D02*
X105770000Y-98275000D01*
G75*
G02*
X105920000Y-98125000I150000J0D01*
G01*
X107570000Y-98125000D01*
G75*
G02*
X107720000Y-98275000I0J-150000D01*
G01*
X107720000Y-98575000D01*
G75*
G02*
X107570000Y-98725000I-150000J0D01*
G01*
X105920000Y-98725000D01*
G75*
G02*
X105770000Y-98575000I0J150000D01*
G01*
G37*
G36*
G01*
X105770000Y-97305000D02*
X105770000Y-97005000D01*
G75*
G02*
X105920000Y-96855000I150000J0D01*
G01*
X107570000Y-96855000D01*
G75*
G02*
X107720000Y-97005000I0J-150000D01*
G01*
X107720000Y-97305000D01*
G75*
G02*
X107570000Y-97455000I-150000J0D01*
G01*
X105920000Y-97455000D01*
G75*
G02*
X105770000Y-97305000I0J150000D01*
G01*
G37*
%TD*%
%TO.C,R2*%
G36*
G01*
X102225001Y-110860000D02*
X100974999Y-110860000D01*
G75*
G02*
X100725000Y-110610001I0J249999D01*
G01*
X100725000Y-109984999D01*
G75*
G02*
X100974999Y-109735000I249999J0D01*
G01*
X102225001Y-109735000D01*
G75*
G02*
X102475000Y-109984999I0J-249999D01*
G01*
X102475000Y-110610001D01*
G75*
G02*
X102225001Y-110860000I-249999J0D01*
G01*
G37*
G36*
G01*
X102225001Y-113785000D02*
X100974999Y-113785000D01*
G75*
G02*
X100725000Y-113535001I0J249999D01*
G01*
X100725000Y-112909999D01*
G75*
G02*
X100974999Y-112660000I249999J0D01*
G01*
X102225001Y-112660000D01*
G75*
G02*
X102475000Y-112909999I0J-249999D01*
G01*
X102475000Y-113535001D01*
G75*
G02*
X102225001Y-113785000I-249999J0D01*
G01*
G37*
%TD*%
%TO.C,R1*%
G36*
G01*
X100974999Y-117740000D02*
X102225001Y-117740000D01*
G75*
G02*
X102475000Y-117989999I0J-249999D01*
G01*
X102475000Y-118615001D01*
G75*
G02*
X102225001Y-118865000I-249999J0D01*
G01*
X100974999Y-118865000D01*
G75*
G02*
X100725000Y-118615001I0J249999D01*
G01*
X100725000Y-117989999D01*
G75*
G02*
X100974999Y-117740000I249999J0D01*
G01*
G37*
G36*
G01*
X100974999Y-114815000D02*
X102225001Y-114815000D01*
G75*
G02*
X102475000Y-115064999I0J-249999D01*
G01*
X102475000Y-115690001D01*
G75*
G02*
X102225001Y-115940000I-249999J0D01*
G01*
X100974999Y-115940000D01*
G75*
G02*
X100725000Y-115690001I0J249999D01*
G01*
X100725000Y-115064999D01*
G75*
G02*
X100974999Y-114815000I249999J0D01*
G01*
G37*
%TD*%
D10*
%TO.C,J3*%
X99030000Y-117500000D03*
X99030000Y-116700000D03*
X99030000Y-117500000D03*
X99030000Y-116700000D03*
X99030000Y-111100000D03*
X99030000Y-111100000D03*
X99030000Y-111900000D03*
X99030000Y-111900000D03*
D11*
X97970000Y-111410000D03*
X97970000Y-117190000D03*
D12*
X99030000Y-116050000D03*
X99030000Y-115050000D03*
X99030000Y-115550000D03*
X99030000Y-113050000D03*
X99030000Y-112550000D03*
X99030000Y-114550000D03*
X99030000Y-114050000D03*
X99030000Y-113550000D03*
D13*
X94280000Y-118620000D03*
X94280000Y-109980000D03*
D14*
X98450000Y-118620000D03*
X98450000Y-109980000D03*
%TD*%
D15*
%TO.C,J2*%
X121920000Y-96640000D03*
X121920000Y-99140000D03*
X121920000Y-101640000D03*
G36*
G01*
X122645000Y-104990000D02*
X121195000Y-104990000D01*
G75*
G02*
X120945000Y-104740000I0J250000D01*
G01*
X120945000Y-103540000D01*
G75*
G02*
X121195000Y-103290000I250000J0D01*
G01*
X122645000Y-103290000D01*
G75*
G02*
X122895000Y-103540000I0J-250000D01*
G01*
X122895000Y-104740000D01*
G75*
G02*
X122645000Y-104990000I-250000J0D01*
G01*
G37*
%TD*%
%TO.C,J1*%
X99060000Y-104020000D03*
X99060000Y-101520000D03*
X99060000Y-99020000D03*
G36*
G01*
X98335000Y-95670000D02*
X99785000Y-95670000D01*
G75*
G02*
X100035000Y-95920000I0J-250000D01*
G01*
X100035000Y-97120000D01*
G75*
G02*
X99785000Y-97370000I-250000J0D01*
G01*
X98335000Y-97370000D01*
G75*
G02*
X98085000Y-97120000I0J250000D01*
G01*
X98085000Y-95920000D01*
G75*
G02*
X98335000Y-95670000I250000J0D01*
G01*
G37*
%TD*%
D16*
%TO.C,D5*%
X125400000Y-114210000D03*
X128600000Y-114210000D03*
X125400000Y-109310000D03*
X128600000Y-109310000D03*
%TD*%
%TO.C,D4*%
X117780000Y-114210000D03*
X120980000Y-114210000D03*
X117780000Y-109310000D03*
X120980000Y-109310000D03*
%TD*%
D17*
%TO.C,D3*%
X106680000Y-109220000D03*
D18*
X106680000Y-116840000D03*
%TD*%
D16*
%TO.C,D2*%
X110160000Y-114210000D03*
X113360000Y-114210000D03*
X110160000Y-109310000D03*
X113360000Y-109310000D03*
%TD*%
D17*
%TO.C,D1*%
X115570000Y-93980000D03*
D18*
X115570000Y-101600000D03*
%TD*%
%TO.C,C1*%
G36*
G01*
X109545000Y-94230000D02*
X109545000Y-93730000D01*
G75*
G02*
X109770000Y-93505000I225000J0D01*
G01*
X110220000Y-93505000D01*
G75*
G02*
X110445000Y-93730000I0J-225000D01*
G01*
X110445000Y-94230000D01*
G75*
G02*
X110220000Y-94455000I-225000J0D01*
G01*
X109770000Y-94455000D01*
G75*
G02*
X109545000Y-94230000I0J225000D01*
G01*
G37*
G36*
G01*
X107995000Y-94230000D02*
X107995000Y-93730000D01*
G75*
G02*
X108220000Y-93505000I225000J0D01*
G01*
X108670000Y-93505000D01*
G75*
G02*
X108895000Y-93730000I0J-225000D01*
G01*
X108895000Y-94230000D01*
G75*
G02*
X108670000Y-94455000I-225000J0D01*
G01*
X108220000Y-94455000D01*
G75*
G02*
X107995000Y-94230000I0J225000D01*
G01*
G37*
%TD*%
M02*
