%TF.GenerationSoftware,KiCad,Pcbnew,(5.1.10)-1*%
%TF.CreationDate,2025-08-18T11:18:52+09:00*%
%TF.ProjectId,TA_01,54415f30-312e-46b6-9963-61645f706362,rev?*%
%TF.SameCoordinates,Original*%
%TF.FileFunction,Legend,Bot*%
%TF.FilePolarity,Positive*%
%FSLAX46Y46*%
G04 Gerber Fmt 4.6, Leading zero omitted, Abs format (unit mm)*
G04 Created by KiCad (PCBNEW (5.1.10)-1) date 2025-08-18 11:18:52*
%MOMM*%
%LPD*%
G01*
G04 APERTURE LIST*
%ADD10C,0.120000*%
%ADD11C,0.150000*%
G04 APERTURE END LIST*
D10*
%TO.C,D1*%
X116690000Y-99910000D02*
X114450000Y-99910000D01*
X114450000Y-99910000D02*
X114450000Y-95670000D01*
X114450000Y-95670000D02*
X116690000Y-95670000D01*
X116690000Y-95670000D02*
X116690000Y-99910000D01*
X115570000Y-100560000D02*
X115570000Y-99910000D01*
X115570000Y-95020000D02*
X115570000Y-95670000D01*
X116690000Y-99190000D02*
X114450000Y-99190000D01*
X116690000Y-99070000D02*
X114450000Y-99070000D01*
X116690000Y-99310000D02*
X114450000Y-99310000D01*
D11*
X118142380Y-97051904D02*
X117142380Y-97051904D01*
X117142380Y-97290000D01*
X117190000Y-97432857D01*
X117285238Y-97528095D01*
X117380476Y-97575714D01*
X117570952Y-97623333D01*
X117713809Y-97623333D01*
X117904285Y-97575714D01*
X117999523Y-97528095D01*
X118094761Y-97432857D01*
X118142380Y-97290000D01*
X118142380Y-97051904D01*
X118142380Y-98575714D02*
X118142380Y-98004285D01*
X118142380Y-98290000D02*
X117142380Y-98290000D01*
X117285238Y-98194761D01*
X117380476Y-98099523D01*
X117428095Y-98004285D01*
X117822380Y-101338095D02*
X116822380Y-101338095D01*
X117822380Y-101909523D02*
X117250952Y-101480952D01*
X116822380Y-101909523D02*
X117393809Y-101338095D01*
%TD*%
M02*
