M48
; DRILL file {KiCad (5.1.10)-1} date 08/18/25 11:18:47
; FORMAT={-:-/ absolute / metric / decimal}
; #@! TF.CreationDate,2025-08-18T11:18:47+09:00
; #@! TF.GenerationSoftware,Kicad,Pcbnew,(5.1.10)-1
; #@! TF.FileFunction,Plated,1,2,PTH
FMAT,2
METRIC
T1C0.600
T2C0.800
T3C0.950
%
G90
G05
T2
X106.68Y-109.22
X106.68Y-116.84
X115.57Y-93.98
X115.57Y-101.6
T3
X99.06Y-96.52
X99.06Y-99.02
X99.06Y-101.52
X99.06Y-104.02
X121.92Y-96.64
X121.92Y-99.14
X121.92Y-101.64
X121.92Y-104.14
T1
G00X93.88Y-109.98
M15
G01X94.68Y-109.98
M16
G05
G00X93.88Y-118.62
M15
G01X94.68Y-118.62
M16
G05
G00X97.9Y-109.98
M15
G01X99.0Y-109.98
M16
G05
G00X97.9Y-118.62
M15
G01X99.0Y-118.62
M16
G05
T0
M30
